<?xml version="1.0" encoding="UTF-8" standalone="no"?>
<!DOCTYPE svg PUBLIC "-//W3C//DTD SVG 1.1//EN" "http://www.w3.org/Graphics/SVG/1.1/DTD/svg11.dtd">
<svg width="100%" height="100%" viewBox="0 0 195 41" version="1.1" xmlns="http://www.w3.org/2000/svg" xmlns:xlink="http://www.w3.org/1999/xlink" xml:space="preserve" xmlns:serif="http://www.serif.com/" style="fill-rule:evenodd;clip-rule:evenodd;stroke-linejoin:round;stroke-miterlimit:2;">
    <g transform="matrix(0.268796,0,0,0.268796,-79.795,-21.0897)">
        <path d="M296.861,173.445L351.119,227.703L300.861,227.703C298.652,227.703 296.861,225.912 296.861,223.703L296.861,173.445ZM438.717,221.249C439.654,222.455 439.822,224.09 439.151,225.461C438.479,226.833 437.085,227.703 435.558,227.703L387.56,227.703C387.56,227.703 360.461,200.603 351.514,191.656C349.952,190.094 349.952,187.562 351.514,185.999C358.197,179.317 374.929,162.584 381.973,155.54C382.785,154.728 383.906,154.304 385.051,154.376C386.197,154.448 387.256,155.008 387.96,155.914C397.179,167.78 426.817,205.932 438.717,221.249ZM383.56,78.46L411.82,78.46C413.429,78.46 414.882,79.424 415.506,80.907C416.131,82.39 415.807,84.102 414.683,85.254C400.652,99.629 369.237,131.813 369.237,131.813L369.247,131.825C369.247,131.825 342.226,158.846 333.293,167.779C332.543,168.529 331.526,168.95 330.465,168.95C329.404,168.95 328.386,168.529 327.636,167.779C323.931,164.074 317.472,157.615 313.767,153.91C312.205,152.348 312.205,149.815 313.767,148.253C327.161,134.86 383.56,78.46 383.56,78.46ZM347.119,78.46L296.861,128.718L296.861,82.46C296.861,80.251 298.652,78.46 300.861,78.46L347.119,78.46Z"/>
    </g>
    <g transform="matrix(0.422504,0,0,0.422504,-66.1164,-6.63133)">
        <g transform="matrix(68,0,0,68,258.283,87.1734)">
            <path d="M0.604,-0.712L0.512,-0.712L0.179,-0.302L0.179,-0.712L0.103,-0.712L0.103,-0L0.179,-0L0.179,-0.198L0.329,-0.379L0.546,-0L0.636,-0L0.38,-0.437L0.604,-0.712Z" style="fill:rgb(24,24,24);fill-rule:nonzero;"/>
        </g>
        <g transform="matrix(68,0,0,68,301.939,87.1734)">
            <path d="M0.168,-0L0.234,-0L0.362,-0.401L0.49,-0L0.557,-0L0.713,-0.492L0.635,-0.492L0.521,-0.097L0.394,-0.492L0.331,-0.492L0.203,-0.097L0.089,-0.492L0.011,-0.492L0.168,-0Z" style="fill:rgb(24,24,24);fill-rule:nonzero;"/>
        </g>
        <g transform="matrix(68,0,0,68,350.831,87.1734)">
            <path d="M0.265,-0.498C0.14,-0.498 0.063,-0.406 0.063,-0.246C0.063,-0.072 0.147,0.006 0.278,0.006C0.361,0.006 0.408,-0.02 0.458,-0.07L0.409,-0.113C0.37,-0.074 0.337,-0.057 0.28,-0.057C0.185,-0.057 0.135,-0.119 0.135,-0.227L0.467,-0.227L0.467,-0.259C0.467,-0.407 0.393,-0.498 0.265,-0.498ZM0.265,-0.437C0.318,-0.437 0.359,-0.408 0.38,-0.363C0.392,-0.337 0.393,-0.321 0.396,-0.281L0.135,-0.281C0.137,-0.321 0.138,-0.337 0.15,-0.363C0.171,-0.408 0.212,-0.437 0.265,-0.437Z" style="fill:rgb(24,24,24);fill-rule:nonzero;"/>
        </g>
        <g transform="matrix(68,0,0,68,386.871,87.1734)">
            <path d="M0.246,-0.498C0.14,-0.498 0.065,-0.444 0.065,-0.354C0.065,-0.272 0.116,-0.23 0.212,-0.222L0.293,-0.215C0.351,-0.21 0.375,-0.187 0.375,-0.143C0.375,-0.085 0.326,-0.056 0.244,-0.056C0.183,-0.056 0.129,-0.073 0.091,-0.113L0.043,-0.065C0.096,-0.013 0.161,0.006 0.245,0.006C0.365,0.006 0.445,-0.049 0.445,-0.144C0.445,-0.237 0.386,-0.269 0.3,-0.277L0.223,-0.284C0.162,-0.29 0.135,-0.312 0.135,-0.356C0.135,-0.407 0.173,-0.437 0.245,-0.437C0.296,-0.437 0.341,-0.425 0.376,-0.398L0.423,-0.445C0.378,-0.481 0.317,-0.498 0.246,-0.498Z" style="fill:rgb(24,24,24);fill-rule:nonzero;"/>
        </g>
        <g transform="matrix(68,0,0,68,427.399,87.1734)">
            <path d="M0.545,-0.712L0.103,-0.712L0.103,-0L0.179,-0L0.179,-0.314L0.491,-0.314L0.491,-0.382L0.179,-0.382L0.179,-0.644L0.545,-0.644L0.545,-0.712Z" style="fill:rgb(24,24,24);fill-rule:nonzero;"/>
        </g>
        <g transform="matrix(68,0,0,68,464.799,87.1734)">
            <path d="M0.265,-0.498C0.205,-0.498 0.158,-0.477 0.124,-0.442C0.074,-0.392 0.064,-0.322 0.064,-0.246C0.064,-0.17 0.074,-0.101 0.124,-0.05C0.158,-0.015 0.205,0.006 0.265,0.006C0.325,0.006 0.372,-0.015 0.406,-0.05C0.456,-0.101 0.466,-0.17 0.466,-0.246C0.466,-0.322 0.456,-0.392 0.406,-0.442C0.372,-0.477 0.325,-0.498 0.265,-0.498ZM0.265,-0.434C0.3,-0.434 0.331,-0.422 0.355,-0.398C0.391,-0.362 0.394,-0.302 0.394,-0.246C0.394,-0.191 0.391,-0.131 0.355,-0.094C0.331,-0.07 0.3,-0.058 0.265,-0.058C0.23,-0.058 0.2,-0.07 0.176,-0.094C0.139,-0.131 0.136,-0.191 0.136,-0.246C0.136,-0.302 0.14,-0.362 0.176,-0.398C0.2,-0.422 0.23,-0.434 0.265,-0.434Z" style="fill:rgb(24,24,24);fill-rule:nonzero;"/>
        </g>
        <g transform="matrix(68,0,0,68,500.839,87.1734)">
            <path d="M0.3,-0.498C0.243,-0.498 0.189,-0.473 0.162,-0.432L0.162,-0.492L0.09,-0.492L0.09,-0L0.162,-0L0.162,-0.302C0.162,-0.377 0.208,-0.434 0.28,-0.434C0.318,-0.434 0.338,-0.425 0.365,-0.398L0.418,-0.452C0.383,-0.487 0.347,-0.498 0.3,-0.498Z" style="fill:rgb(24,24,24);fill-rule:nonzero;"/>
        </g>
        <g transform="matrix(68,0,0,68,529.467,87.1734)">
            <path d="M0.614,-0.498C0.545,-0.498 0.49,-0.47 0.452,-0.416C0.422,-0.47 0.369,-0.498 0.301,-0.498C0.246,-0.498 0.197,-0.478 0.162,-0.438L0.162,-0.492L0.09,-0.492L0.09,-0L0.162,-0L0.162,-0.303C0.162,-0.389 0.211,-0.434 0.285,-0.434C0.359,-0.434 0.406,-0.39 0.406,-0.303L0.406,-0L0.478,-0L0.478,-0.311C0.478,-0.389 0.529,-0.434 0.601,-0.434C0.675,-0.434 0.722,-0.39 0.722,-0.303L0.722,-0L0.794,-0L0.794,-0.315C0.794,-0.372 0.776,-0.418 0.741,-0.452C0.711,-0.481 0.667,-0.498 0.614,-0.498Z" style="fill:rgb(24,24,24);fill-rule:nonzero;"/>
        </g>
        <g transform="matrix(68,0,0,68,589.239,87.1734)">
            <path d="M0.246,-0.498C0.14,-0.498 0.065,-0.444 0.065,-0.354C0.065,-0.272 0.116,-0.23 0.212,-0.222L0.293,-0.215C0.351,-0.21 0.375,-0.187 0.375,-0.143C0.375,-0.085 0.326,-0.056 0.244,-0.056C0.183,-0.056 0.129,-0.073 0.091,-0.113L0.043,-0.065C0.096,-0.013 0.161,0.006 0.245,0.006C0.365,0.006 0.445,-0.049 0.445,-0.144C0.445,-0.237 0.386,-0.269 0.3,-0.277L0.223,-0.284C0.162,-0.29 0.135,-0.312 0.135,-0.356C0.135,-0.407 0.173,-0.437 0.245,-0.437C0.296,-0.437 0.341,-0.425 0.376,-0.398L0.423,-0.445C0.378,-0.481 0.317,-0.498 0.246,-0.498Z" style="fill:rgb(24,24,24);fill-rule:nonzero;"/>
        </g>
    </g>
</svg>
